REM DIRINDEX 1\2,1\3
REM DIRNAME cjc143,folder01,folder02
TITLE ""
FILE "2000 phrasesTrack18.mp3" MP3
  TRACK 01 AUDIO
    TITLE "2:cjc143_0742"
    INDEX 01 00:00:00
  TRACK 02 AUDIO
    TITLE "0:"
    INDEX 01 00:00:72
  TRACK 03 AUDIO
    TITLE "2:cjc143_0743"
    INDEX 01 00:01:42
  TRACK 04 AUDIO
    TITLE "0:"
    INDEX 01 00:02:69
  TRACK 05 AUDIO
    TITLE "2:cjc143_0744"
    INDEX 01 00:03:00
  TRACK 06 AUDIO
    TITLE "0:"
    INDEX 01 00:04:46
  TRACK 07 AUDIO
    TITLE "2:cjc143_0745"
    INDEX 01 00:04:52
  TRACK 08 AUDIO
    TITLE "0:"
    INDEX 01 00:06:45
  TRACK 09 AUDIO
    TITLE "2:cjc143_0746"
    INDEX 01 00:06:69
  TRACK 10 AUDIO
    TITLE "0:"
    INDEX 01 00:08:38
  TRACK 11 AUDIO
    TITLE "2:cjc143_0747"
    INDEX 01 00:08:46
  TRACK 12 AUDIO
    TITLE "0:"
    INDEX 01 00:10:25
  TRACK 13 AUDIO
    TITLE "2:cjc143_0748"
    INDEX 01 00:10:35
  TRACK 14 AUDIO
    TITLE "0:"
    INDEX 01 00:11:62
  TRACK 15 AUDIO
    TITLE "2:cjc143_0749"
    INDEX 01 00:11:66
  TRACK 16 AUDIO
    TITLE "0:"
    INDEX 01 00:13:28
  TRACK 17 AUDIO
    TITLE "2:cjc143_0750"
    INDEX 01 00:13:37
  TRACK 18 AUDIO
    TITLE "0:"
    INDEX 01 00:14:68
  TRACK 19 AUDIO
    TITLE "2:cjc143_0751"
    INDEX 01 00:14:74
  TRACK 20 AUDIO
    TITLE "0:"
    INDEX 01 00:16:32
  TRACK 21 AUDIO
    TITLE "2:cjc143_0752"
    INDEX 01 00:16:38
  TRACK 22 AUDIO
    TITLE "0:"
    INDEX 01 00:17:69
  TRACK 23 AUDIO
    TITLE "2:cjc143_0753"
    INDEX 01 00:17:74
  TRACK 24 AUDIO
    TITLE "0:"
    INDEX 01 00:19:58
  TRACK 25 AUDIO
    TITLE "2:cjc143_0754"
    INDEX 01 00:19:67
  TRACK 26 AUDIO
    TITLE "0:"
    INDEX 01 00:21:19
  TRACK 27 AUDIO
    TITLE "2:cjc143_0755"
    INDEX 01 00:21:29
  TRACK 28 AUDIO
    TITLE "0:"
    INDEX 01 00:22:62
  TRACK 29 AUDIO
    TITLE "2:cjc143_0756"
    INDEX 01 00:23:08
  TRACK 30 AUDIO
    TITLE "0:"
    INDEX 01 00:24:51
  TRACK 31 AUDIO
    TITLE "2:cjc143_0757"
    INDEX 01 00:24:57
  TRACK 32 AUDIO
    TITLE "0:"
    INDEX 01 00:26:73
  TRACK 33 AUDIO
    TITLE "2:cjc143_0758"
    INDEX 01 00:27:08
  TRACK 34 AUDIO
    TITLE "0:"
    INDEX 01 00:28:68
  TRACK 35 AUDIO
    TITLE "2:cjc143_0759"
    INDEX 01 00:29:19
  TRACK 36 AUDIO
    TITLE "0:"
    INDEX 01 00:30:63
  TRACK 37 AUDIO
    TITLE "2:cjc143_0760"
    INDEX 01 00:30:73
  TRACK 38 AUDIO
    TITLE "0:"
    INDEX 01 00:33:40
  TRACK 39 AUDIO
    TITLE "2:cjc143_0761"
    INDEX 01 00:34:12
  TRACK 40 AUDIO
    TITLE "0:"
    INDEX 01 00:35:57
  TRACK 41 AUDIO
    TITLE "2:cjc143_0762"
    INDEX 01 00:35:64
  TRACK 42 AUDIO
    TITLE "0:"
    INDEX 01 00:37:20
  TRACK 43 AUDIO
    TITLE "2:cjc143_0763"
    INDEX 01 00:37:52
  TRACK 44 AUDIO
    TITLE "0:"
    INDEX 01 00:39:07
  TRACK 45 AUDIO
    TITLE "2:cjc143_0764"
    INDEX 01 00:39:13
  TRACK 46 AUDIO
    TITLE "0:"
    INDEX 01 00:40:48
  TRACK 47 AUDIO
    TITLE "2:cjc143_0765"
    INDEX 01 00:40:56
  TRACK 48 AUDIO
    TITLE "0:"
    INDEX 01 00:42:39
  TRACK 49 AUDIO
    TITLE "2:cjc143_0766"
    INDEX 01 00:42:41
  TRACK 50 AUDIO
    TITLE "0:"
    INDEX 01 00:44:07
  TRACK 51 AUDIO
    TITLE "2:cjc143_0767"
    INDEX 01 00:44:14
  TRACK 52 AUDIO
    TITLE "0:"
    INDEX 01 00:45:47
  TRACK 53 AUDIO
    TITLE "2:cjc143_0768"
    INDEX 01 00:45:53
  TRACK 54 AUDIO
    TITLE "0:"
    INDEX 01 00:47:13
  TRACK 55 AUDIO
    TITLE "2:cjc143_0769"
    INDEX 01 00:47:23
  TRACK 56 AUDIO
    TITLE "0:"
    INDEX 01 00:48:53
  TRACK 57 AUDIO
    TITLE "2:cjc143_0770"
    INDEX 01 00:49:08
  TRACK 58 AUDIO
    TITLE "0:"
    INDEX 01 00:50:44
  TRACK 59 AUDIO
    TITLE "2:cjc143_0771"
    INDEX 01 00:50:54
  TRACK 60 AUDIO
    TITLE "0:"
    INDEX 01 00:52:16
  TRACK 61 AUDIO
    TITLE "2:cjc143_0772"
    INDEX 01 00:52:26
  TRACK 62 AUDIO
    TITLE "0:"
    INDEX 01 00:54:01
  TRACK 63 AUDIO
    TITLE "2:cjc143_0773"
    INDEX 01 00:54:34
  TRACK 64 AUDIO
    TITLE "0:"
    INDEX 01 00:55:71
  TRACK 65 AUDIO
    TITLE "2:cjc143_0774"
    INDEX 01 00:56:06
  TRACK 66 AUDIO
    TITLE "0:"
    INDEX 01 00:57:35
  TRACK 67 AUDIO
    TITLE "2:cjc143_0775"
    INDEX 01 00:57:46
  TRACK 68 AUDIO
    TITLE "0:"
    INDEX 01 00:59:08
  TRACK 69 AUDIO
    TITLE "2:cjc143_0776"
    INDEX 01 00:59:16
  TRACK 70 AUDIO
    TITLE "0:"
    INDEX 01 01:00:49
  TRACK 71 AUDIO
    TITLE "2:cjc143_0777"
    INDEX 01 01:00:60
  TRACK 72 AUDIO
    TITLE "0:"
    INDEX 01 01:02:16
